<svg id="Youtube--Streamline-Openmoji" viewBox="0 0 48 48" xmlns="http://www.w3.org/2000/svg" height="48" width="48">
  <desc>
    Youtube Streamline Emoji: https://streamlinehq.com
  </desc>
  <g id="color">
    <path fill="#ea5a47" stroke="none" d="M45.788 12.982999999999999c-0.5229999999999999 -1.9693999999999998 -2.0637999999999996 -3.5202666666666667 -4.0206 -4.0466C38.221 7.979799999999999 24 7.979799999999999 24 7.979799999999999s-14.220933333333331 0 -17.767466666666664 0.9566c-1.9566 0.5263333333333333 -3.4976666666666665 2.0772 -4.0206 4.0466C1.2616666666666667 16.552466666666668 1.2616666666666667 24 1.2616666666666667 24s0 7.447399999999999 0.9502666666666666 11.017199999999999c0.5229333333333333 1.9692 2.064 3.5200666666666667 4.0206 4.046666666666667C9.779066666666665 40.020199999999996 24 40.020199999999996 24 40.020199999999996s14.220999999999998 0 17.7674 -0.9563333333333334c1.9567999999999999 -0.5266 3.4976000000000003 -2.0774 4.0206 -4.046666666666667C46.73833333333333 31.447400000000002 46.73833333333333 24 46.73833333333333 24s0 -7.447466666666667 -0.9503333333333333 -11.017" stroke-width="0.6667"></path>
    <path fill="#ffffff" stroke="none" d="m19.348999999999997 30.761733333333332 11.885933333333334 -6.761399999999999 -11.885933333333334 -6.762066666666667Z" stroke-width="0.6667"></path>
  </g>
  <g id="hair"></g>
  <g id="skin"></g>
  <g id="skin-shadow"></g>
  <g id="line">
    <path fill="none" stroke="#000000" stroke-miterlimit="10" stroke-width="1.3333" d="M45.788 12.982999999999999c-0.5229999999999999 -1.9693999999999998 -2.0637999999999996 -3.5202666666666667 -4.0206 -4.0466C38.221 7.979799999999999 24 7.979799999999999 24 7.979799999999999s-14.220933333333331 0 -17.767466666666664 0.9566c-1.9566 0.5263333333333333 -3.4976666666666665 2.0772 -4.0206 4.0466C1.2616666666666667 16.552466666666668 1.2616666666666667 24 1.2616666666666667 24s0 7.447399999999999 0.9502666666666666 11.017199999999999c0.5229333333333333 1.9692 2.064 3.5200666666666667 4.0206 4.046666666666667C9.779066666666665 40.020199999999996 24 40.020199999999996 24 40.020199999999996s14.220999999999998 0 17.7674 -0.9563333333333334c1.9567999999999999 -0.5266 3.4976000000000003 -2.0774 4.0206 -4.046666666666667C46.73833333333333 31.447400000000002 46.73833333333333 24 46.73833333333333 24s0 -7.447466666666667 -0.9503333333333333 -11.017"></path>
    <path fill="none" stroke="#000000" stroke-linecap="round" stroke-linejoin="round" stroke-miterlimit="10" stroke-width="1.3333" d="m19.348999999999997 30.761733333333332 11.885933333333334 -6.761399999999999 -11.885933333333334 -6.762066666666667Z"></path>
  </g>
</svg>